<?xml version="1.0" encoding="utf-8"?>
<!-- Generator: Adobe Illustrator 22.0.1, SVG Export Plug-In . SVG Version: 6.00 Build 0)  -->
<svg version="1.1" id="Слой_1" xmlns="http://www.w3.org/2000/svg" xmlns:xlink="http://www.w3.org/1999/xlink" x="0px" y="0px"
	 viewBox="0 0 32 32" style="enable-background:new 0 0 32 32;" xml:space="preserve">
<style type="text/css">
	.st0{fill:#FFFFFF;}
</style>
<g id="крестик_3_">
	<g>
		<g>
			<path class="st0" d="M18.6,25.4c-8.6-8.7-2.5-2.5-11.1-11.2c-2.2-2.3-5.8,1.2-3.5,3.5c8.6,8.7,2.6,2.6,11.2,11.3
				C17.4,31.3,20.9,27.7,18.6,25.4L18.6,25.4z"/>
		</g>
	</g>
</g>
<g id="крестик_1_">
	<g>
		<g>
			<path class="st0" d="M7.6,17.7c8.7-8.6,2.5-2.5,11.2-11.1c2.3-2.2-1.2-5.8-3.5-3.5C6.6,11.6,12.7,5.7,4,14.3
				C1.7,16.5,5.3,20,7.6,17.7L7.6,17.7z"/>
		</g>
	</g>
</g>
<g id="крестик_2_">
	<g>
		<g>
			<path class="st0" d="M10.5,18.4c12.2,0.1,3.6,0,15.8,0.1c3.2,0.1,3.3-4.9,0-4.9c-12.2-0.1-3.7,0-15.9-0.1
				C7.2,13.4,7.3,18.4,10.5,18.4L10.5,18.4z"/>
		</g>
	</g>
</g>
</svg>
