<?xml version="1.0" encoding="utf-8"?>
<!-- Generator: Adobe Illustrator 19.1.1, SVG Export Plug-In . SVG Version: 6.00 Build 0)  -->
<svg version="1.1" id="Слой_1" xmlns="http://www.w3.org/2000/svg" xmlns:xlink="http://www.w3.org/1999/xlink" x="0px" y="0px"
	 viewBox="0 0 28 28" style="enable-background:new 0 0 28 28;" xml:space="preserve">
<style type="text/css">
	.st0{fill:#AAAAAA;}
</style>
<path id="настройки" class="st0" d="M24.4,15.4c0.1-0.4,0.1-0.9,0.1-1.4s0-0.9-0.1-1.4l3-2.3c0.3-0.2,0.3-0.6,0.2-0.9
	l-2.8-4.9c-0.2-0.3-0.5-0.4-0.9-0.3l-3.5,1.4c-0.7-0.6-1.5-1-2.4-1.4l-0.5-3.7C17.4,0.3,17.2,0,16.8,0h-5.6c-0.4,0-0.6,0.3-0.7,0.6
	L10,4.3C9.1,4.7,8.3,5.1,7.6,5.7L4.1,4.3c-0.3-0.1-0.7,0-0.9,0.3L0.4,9.4c-0.2,0.3-0.1,0.7,0.2,0.9l3,2.3c-0.1,0.4-0.1,0.9-0.1,1.4
	s0,0.9,0.1,1.4l-3,2.3c-0.3,0.2-0.3,0.6-0.2,0.9l2.8,4.9c0.2,0.3,0.5,0.4,0.9,0.3l3.5-1.4c0.7,0.6,1.5,1,2.4,1.4l0.5,3.7
	c0.1,0.3,0.3,0.6,0.7,0.6h5.6c0.4,0,0.6-0.3,0.7-0.6l0.5-3.7c0.9-0.4,1.6-0.8,2.4-1.4l3.5,1.4c0.3,0.1,0.7,0,0.9-0.3l2.8-4.9
	c0.2-0.3,0.1-0.7-0.2-0.9L24.4,15.4z M14,18.9c-2.7,0-4.9-2.2-4.9-4.9s2.2-4.9,4.9-4.9s4.9,2.2,4.9,4.9S16.7,18.9,14,18.9z"/>
</svg>
